<?xml version="1.0" standalone="no"?>
<!DOCTYPE svg PUBLIC "-//W3C//DTD SVG 20010904//EN"
 "http://www.w3.org/TR/2001/REC-SVG-20010904/DTD/svg10.dtd">
<svg version="1.0" xmlns="http://www.w3.org/2000/svg"
 width="260.000000pt" height="260.000000pt" viewBox="0 0 260.000000 260.000000"
 preserveAspectRatio="xMidYMid meet">
<metadata>
Created by potrace 1.14, written by Peter Selinger 2001-2017
</metadata>
<g transform="translate(0.000000,260.000000) scale(0.100000,-0.100000)"
fill="#000000" stroke="none">
<path d="M1496 2458 c-91 -8 -184 -36 -270 -80 -319 -161 -593 -548 -682 -963
-22 -104 -26 -348 -9 -479 53 -385 241 -655 501 -721 122 -30 283 -24 367 14
88 40 175 159 193 266 17 96 7 225 -25 333 l-19 62 80 0 c47 0 122 -10 186
-24 110 -24 222 -34 222 -18 0 40 -176 98 -373 122 -95 12 -372 9 -444 -5 -51
-10 -159 -42 -189 -57 -38 -18 -53 -61 -33 -96 22 -40 107 -43 195 -8 75 30
206 68 212 61 12 -12 10 -237 -2 -305 -17 -94 -63 -197 -107 -238 -64 -60
-125 -65 -222 -17 -203 99 -319 410 -312 839 2 94 6 187 10 206 67 353 205
634 410 834 107 105 268 186 368 186 64 0 145 -31 192 -72 164 -144 82 -520
-150 -694 -62 -46 -89 -54 -185 -54 -49 0 -91 -4 -95 -9 -19 -31 80 -61 203
-61 180 0 307 70 411 226 88 131 130 320 100 454 -23 106 -104 217 -189 260
-74 37 -206 52 -344 38z"/>
</g>
</svg>
